# xmcd
#
# Track frame offsets:
#	150
#	8628
#	32931
#	53334
#	65637
#	75690
#	89060
#	113664
#	127167
#	158671
#
# Disc length: 2273 seconds
#
# Revision: 1
# Processed by: cddbd v1.5.2PL0 Copyright (c) Steve Scherf et al.
# Submitted via: audiograbber 1.83.01
#
DISCID=7b08df0a
DTITLE=Desecrative Phoneticism - Gratuitous Self Praise
DYEAR=2004
DGENRE=Black Metal
TTITLE0=Attitude Adjuster
TTITLE1=Of Ye Old Ones and Their Spawn
TTITLE2=Scorn
TTITLE3=Reprisal
TTITLE4=Tense Nervous Headache
TTITLE5=I Disapprove of You
TTITLE6=Blue Chemotherapy Wig
TTITLE7=Antithesis
TTITLE8=Mongreloid
TTITLE9=Nujuicide
EXTD=
EXTT0=
EXTT1=
EXTT2=
EXTT3=
EXTT4=
EXTT5=
EXTT6=
EXTT7=
EXTT8=
EXTT9=
PLAYORDER=
